<svg width="552" height="251" viewBox="0 0 552 251" fill="none" xmlns="http://www.w3.org/2000/svg">
<path opacity="0.28" d="M544.759 250.348H7.1616C3.18293 250.348 0 247.165 0 243.187C0 239.208 3.18293 236.025 7.1616 236.025H544.838C548.817 236.025 552 239.208 552 243.187C551.92 247.165 548.737 250.348 544.759 250.348Z" fill="#848484"/>
<path d="M521.443 176.823C521.443 147.221 499.004 122.872 469.959 120.087V113.403H452.533V241.277H469.959V233.558C498.924 230.773 521.443 206.424 521.443 176.823ZM469.88 215.177V138.548C488.5 141.253 503.141 157.407 503.141 176.902C503.141 196.318 488.5 212.471 469.88 215.177Z" fill="#F09F54"/>
<path opacity="0.29" d="M469.88 120.087V113.403H452.454V241.277H469.88V233.558C498.925 230.773 521.364 206.503 521.364 176.823C521.444 147.221 498.925 122.872 469.88 120.087ZM469.88 227.67V234.274H453.568V119.211H469.88V125.975C495.423 128.442 516.033 150.245 516.033 176.823C516.112 203.4 495.503 225.203 469.88 227.67Z" fill="#F09F54"/>
<path d="M521.443 176.823C521.443 147.221 499.004 122.872 469.959 120.087V113.403H452.533V241.277H469.959V233.558C498.924 230.773 521.443 206.424 521.443 176.823ZM469.88 215.177V138.548C488.5 141.253 503.141 157.407 503.141 176.902C503.141 196.318 488.5 212.471 469.88 215.177Z" stroke="#444E59" stroke-width="4" stroke-miterlimit="10" stroke-linecap="round" stroke-linejoin="round"/>
<path d="M459.456 228.466H452.454" stroke="#444E59" stroke-width="3" stroke-miterlimit="10" stroke-linecap="round" stroke-linejoin="round"/>
<path d="M459.456 215.734H452.454" stroke="#444E59" stroke-width="3" stroke-miterlimit="10" stroke-linecap="round" stroke-linejoin="round"/>
<path d="M459.456 202.923H452.454" stroke="#444E59" stroke-width="3" stroke-miterlimit="10" stroke-linecap="round" stroke-linejoin="round"/>
<path d="M459.456 190.111H452.454" stroke="#444E59" stroke-width="3" stroke-miterlimit="10" stroke-linecap="round" stroke-linejoin="round"/>
<path d="M459.456 177.38H452.454" stroke="#444E59" stroke-width="3" stroke-miterlimit="10" stroke-linecap="round" stroke-linejoin="round"/>
<path d="M459.456 164.568H452.454" stroke="#444E59" stroke-width="3" stroke-miterlimit="10" stroke-linecap="round" stroke-linejoin="round"/>
<path d="M459.456 151.757H452.454" stroke="#444E59" stroke-width="3" stroke-miterlimit="10" stroke-linecap="round" stroke-linejoin="round"/>
<path d="M459.456 138.946H452.454" stroke="#444E59" stroke-width="3" stroke-miterlimit="10" stroke-linecap="round" stroke-linejoin="round"/>
<path d="M459.456 126.214H452.454" stroke="#444E59" stroke-width="3" stroke-miterlimit="10" stroke-linecap="round" stroke-linejoin="round"/>
<path d="M440.2 48.7095H413.861V240.959H440.2V48.7095Z" fill="#F09F54"/>
<path d="M440.2 48.7095H413.861V240.959H440.2V48.7095Z" fill="#F09F54"/>
<path opacity="0.29" d="M440.2 48.7095H428.741V240.959H440.2V48.7095Z" fill="#F09F54"/>
<path d="M440.2 48.7095H413.861V240.959H440.2V48.7095Z" stroke="#444E59" stroke-width="4" stroke-miterlimit="10" stroke-linecap="round" stroke-linejoin="round"/>
<path d="M423.012 221.543H413.861" stroke="#444E59" stroke-width="3" stroke-miterlimit="10" stroke-linecap="round" stroke-linejoin="round"/>
<path d="M419.51 230.694H413.861" stroke="#444E59" stroke-width="3" stroke-miterlimit="10" stroke-linecap="round" stroke-linejoin="round"/>
<path d="M423.012 203.241H413.861" stroke="#444E59" stroke-width="3" stroke-miterlimit="10" stroke-linecap="round" stroke-linejoin="round"/>
<path d="M419.51 212.392H413.861" stroke="#444E59" stroke-width="3" stroke-miterlimit="10" stroke-linecap="round" stroke-linejoin="round"/>
<path d="M423.012 184.939H413.861" stroke="#444E59" stroke-width="3" stroke-miterlimit="10" stroke-linecap="round" stroke-linejoin="round"/>
<path d="M419.51 194.09H413.861" stroke="#444E59" stroke-width="3" stroke-miterlimit="10" stroke-linecap="round" stroke-linejoin="round"/>
<path d="M423.012 166.558H413.861" stroke="#444E59" stroke-width="3" stroke-miterlimit="10" stroke-linecap="round" stroke-linejoin="round"/>
<path d="M419.51 175.709H413.861" stroke="#444E59" stroke-width="3" stroke-miterlimit="10" stroke-linecap="round" stroke-linejoin="round"/>
<path d="M423.012 148.256H413.861" stroke="#444E59" stroke-width="3" stroke-miterlimit="10" stroke-linecap="round" stroke-linejoin="round"/>
<path d="M419.51 157.407H413.861" stroke="#444E59" stroke-width="3" stroke-miterlimit="10" stroke-linecap="round" stroke-linejoin="round"/>
<path d="M423.012 129.954H413.861" stroke="#444E59" stroke-width="3" stroke-miterlimit="10" stroke-linecap="round" stroke-linejoin="round"/>
<path d="M419.51 139.105H413.861" stroke="#444E59" stroke-width="3" stroke-miterlimit="10" stroke-linecap="round" stroke-linejoin="round"/>
<path d="M423.012 111.652H413.861" stroke="#444E59" stroke-width="3" stroke-miterlimit="10" stroke-linecap="round" stroke-linejoin="round"/>
<path d="M419.51 120.803H413.861" stroke="#444E59" stroke-width="3" stroke-miterlimit="10" stroke-linecap="round" stroke-linejoin="round"/>
<path d="M423.012 93.3501H413.861" stroke="#444E59" stroke-width="3" stroke-miterlimit="10" stroke-linecap="round" stroke-linejoin="round"/>
<path d="M419.51 102.501H413.861" stroke="#444E59" stroke-width="3" stroke-miterlimit="10" stroke-linecap="round" stroke-linejoin="round"/>
<path d="M423.012 75.0483H413.861" stroke="#444E59" stroke-width="3" stroke-miterlimit="10" stroke-linecap="round" stroke-linejoin="round"/>
<path d="M419.51 84.1992H413.861" stroke="#444E59" stroke-width="3" stroke-miterlimit="10" stroke-linecap="round" stroke-linejoin="round"/>
<path d="M423.012 56.7464H413.861" stroke="#444E59" stroke-width="3" stroke-miterlimit="10" stroke-linecap="round" stroke-linejoin="round"/>
<path d="M419.51 65.8973H413.861" stroke="#444E59" stroke-width="3" stroke-miterlimit="10" stroke-linecap="round" stroke-linejoin="round"/>
<path d="M375.427 95.1803H365.162V122.315H375.427V95.1803Z" fill="#848484"/>
<path opacity="0.25" d="M368.981 95.1803H365.162V122.315H368.981V95.1803Z" fill="#848484"/>
<path d="M375.427 95.1803H365.162V122.315H375.427V95.1803Z" stroke="#444E59" stroke-width="4" stroke-miterlimit="10" stroke-linecap="round" stroke-linejoin="round"/>
<path d="M372.642 122.394H367.947V135.524H372.642V122.394Z" fill="white"/>
<path d="M372.642 122.394H367.947V135.524H372.642V122.394Z" stroke="#444E59" stroke-width="4" stroke-miterlimit="10" stroke-linecap="round" stroke-linejoin="round"/>
<path d="M362.377 147.221L338.505 240.879L374.79 148.494L362.377 147.221Z" fill="white"/>
<path d="M362.377 147.221L338.505 240.879L374.79 148.494L362.377 147.221Z" stroke="#444E59" stroke-width="4" stroke-miterlimit="10" stroke-linecap="round" stroke-linejoin="round"/>
<path d="M378.291 147.221L402.163 240.879L365.958 148.494L378.291 147.221Z" fill="white"/>
<path d="M378.291 147.221L402.163 240.879L365.958 148.494L378.291 147.221Z" stroke="#444E59" stroke-width="4" stroke-miterlimit="10" stroke-linecap="round" stroke-linejoin="round"/>
<path d="M370.334 165.603C379.124 165.603 386.249 158.477 386.249 149.688C386.249 140.899 379.124 133.773 370.334 133.773C361.545 133.773 354.419 140.899 354.419 149.688C354.419 158.477 361.545 165.603 370.334 165.603Z" fill="#71A850"/>
<path opacity="0.4" d="M358.876 149.688C358.876 141.651 364.844 135.047 372.562 133.933C371.846 133.853 371.13 133.773 370.334 133.773C361.581 133.773 354.419 140.935 354.419 149.688C354.419 158.441 361.581 165.603 370.334 165.603C371.05 165.603 371.846 165.523 372.562 165.444C364.844 164.33 358.876 157.725 358.876 149.688Z" fill="#71A850"/>
<path d="M370.334 165.603C379.124 165.603 386.249 158.477 386.249 149.688C386.249 140.899 379.124 133.773 370.334 133.773C361.545 133.773 354.419 140.899 354.419 149.688C354.419 158.477 361.545 165.603 370.334 165.603Z" stroke="#444E59" stroke-width="4" stroke-miterlimit="10" stroke-linecap="round" stroke-linejoin="round"/>
<path d="M370.334 155.099C373.323 155.099 375.745 152.676 375.745 149.688C375.745 146.7 373.323 144.277 370.334 144.277C367.346 144.277 364.923 146.7 364.923 149.688C364.923 152.676 367.346 155.099 370.334 155.099Z" fill="#444E59"/>
<path d="M370.334 155.099C373.323 155.099 375.745 152.676 375.745 149.688C375.745 146.7 373.323 144.277 370.334 144.277C367.346 144.277 364.923 146.7 364.923 149.688C364.923 152.676 367.346 155.099 370.334 155.099Z" stroke="#444E59" stroke-width="4" stroke-miterlimit="10" stroke-linecap="round" stroke-linejoin="round"/>
<path d="M312.882 240.72H207.845C201.718 240.72 196.705 235.707 196.705 229.58V13.1403C196.705 7.01312 201.718 2 207.845 2H312.882C319.009 2 324.023 7.01312 324.023 13.1403V229.58C324.023 235.707 319.009 240.72 312.882 240.72Z" fill="#848484"/>
<path opacity="0.28" d="M312.882 2H306.198C312.325 2 317.338 7.01312 317.338 13.1403V229.58C317.338 235.707 312.325 240.72 306.198 240.72H312.962C319.089 240.72 324.102 235.707 324.102 229.58V13.1403C324.022 6.93354 319.009 2 312.882 2Z" fill="#848484"/>
<path opacity="0.48" d="M203.31 229.58V13.1403C203.31 7.01312 208.323 2 214.45 2H207.845C201.718 2 196.705 7.01312 196.705 13.1403V229.58C196.705 235.707 201.718 240.72 207.845 240.72H214.45C208.323 240.72 203.31 235.707 203.31 229.58Z" fill="#848484"/>
<path d="M312.882 240.72H207.845C201.718 240.72 196.705 235.707 196.705 229.58V13.1403C196.705 7.01312 201.718 2 207.845 2H312.882C319.009 2 324.023 7.01312 324.023 13.1403V229.58C324.023 235.707 319.009 240.72 312.882 240.72Z" stroke="#444E59" stroke-width="4" stroke-miterlimit="10" stroke-linecap="round" stroke-linejoin="round"/>
<path d="M324.038 210.075L324.038 31.8304L196.72 31.8304L196.72 210.075L324.038 210.075Z" fill="#E9FBFF"/>
<path d="M323.386 89.2919H313.439C308.028 89.2919 303.652 84.9154 303.652 79.5044V55.2345C303.652 49.8235 308.028 45.447 313.439 45.447H323.386V89.2919Z" fill="#C9C9C9"/>
<path d="M204.026 187.645H196.705V110.22H204.026C209.517 110.22 213.973 114.676 213.973 120.166V177.698C213.893 183.188 209.517 187.645 204.026 187.645Z" fill="#C9C9C9"/>
<path d="M324.038 210.075L324.038 31.8304L196.72 31.8304L196.72 210.075L324.038 210.075Z" stroke="#444E59" stroke-width="4" stroke-miterlimit="10" stroke-linecap="round" stroke-linejoin="round"/>
<path d="M277.87 17.9147H283.44" stroke="#444E59" stroke-width="5" stroke-miterlimit="10" stroke-linecap="round" stroke-linejoin="round"/>
<path d="M237.288 17.9147H269.117" stroke="#444E59" stroke-width="5" stroke-miterlimit="10" stroke-linecap="round" stroke-linejoin="round"/>
<path opacity="0.29" d="M260.364 232.285C265.198 232.285 269.117 228.366 269.117 223.532C269.117 218.698 265.198 214.779 260.364 214.779C255.53 214.779 251.611 218.698 251.611 223.532C251.611 228.366 255.53 232.285 260.364 232.285Z" fill="#848484"/>
<path d="M260.364 230.216C264.055 230.216 267.048 227.224 267.048 223.532C267.048 219.84 264.055 216.848 260.364 216.848C256.672 216.848 253.68 219.84 253.68 223.532C253.68 227.224 256.672 230.216 260.364 230.216Z" fill="#444E59"/>
<g opacity="0.3">
<g opacity="0.3">
<g opacity="0.3">
<path opacity="0.3" d="M231.32 188.759H218.588C215.087 188.759 212.222 185.894 212.222 182.393V169.661C212.222 166.16 215.087 163.295 218.588 163.295H231.32C234.821 163.295 237.685 166.16 237.685 169.661V182.393C237.685 185.894 234.821 188.759 231.32 188.759Z" stroke="#444E59" stroke-width="2" stroke-linecap="round" stroke-linejoin="round" stroke-dasharray="4.08 4.08"/>
</g>
<g opacity="0.3">
<path opacity="0.3" d="M301.742 188.759H289.01C285.509 188.759 282.644 185.894 282.644 182.393V169.661C282.644 166.16 285.509 163.295 289.01 163.295H301.742C305.243 163.295 308.108 166.16 308.108 169.661V182.393C308.108 185.894 305.243 188.759 301.742 188.759Z" stroke="#444E59" stroke-width="2" stroke-linecap="round" stroke-linejoin="round" stroke-dasharray="4.08 4.08"/>
</g>
<g opacity="0.3">
<path opacity="0.3" d="M266.73 188.759H253.998C250.497 188.759 247.632 185.894 247.632 182.393V169.661C247.632 166.16 250.497 163.295 253.998 163.295H266.73C270.231 163.295 273.096 166.16 273.096 169.661V182.393C273.096 185.894 270.231 188.759 266.73 188.759Z" stroke="#444E59" stroke-width="2" stroke-linecap="round" stroke-linejoin="round" stroke-dasharray="4.08 4.08"/>
</g>
</g>
<g opacity="0.3">
<g opacity="0.3">
<path opacity="0.3" d="M231.32 150.563H218.588C215.087 150.563 212.222 147.699 212.222 144.197V131.466C212.222 127.965 215.087 125.1 218.588 125.1H231.32C234.821 125.1 237.685 127.965 237.685 131.466V144.197C237.685 147.699 234.821 150.563 231.32 150.563Z" stroke="#444E59" stroke-width="2" stroke-linecap="round" stroke-linejoin="round" stroke-dasharray="4.08 4.08"/>
</g>
<g opacity="0.3">
<path opacity="0.3" d="M301.742 150.563H289.01C285.509 150.563 282.644 147.699 282.644 144.197V131.466C282.644 127.965 285.509 125.1 289.01 125.1H301.742C305.243 125.1 308.108 127.965 308.108 131.466V144.197C308.108 147.699 305.243 150.563 301.742 150.563Z" stroke="#444E59" stroke-width="2" stroke-linecap="round" stroke-linejoin="round" stroke-dasharray="4.08 4.08"/>
</g>
<g opacity="0.3">
<path opacity="0.3" d="M266.73 150.563H253.998C250.497 150.563 247.632 147.699 247.632 144.197V131.466C247.632 127.965 250.497 125.1 253.998 125.1H266.73C270.231 125.1 273.096 127.965 273.096 131.466V144.197C273.096 147.699 270.231 150.563 266.73 150.563Z" stroke="#444E59" stroke-width="2" stroke-linecap="round" stroke-linejoin="round" stroke-dasharray="4.08 4.08"/>
</g>
</g>
<g opacity="0.3">
<g opacity="0.3">
<path opacity="0.3" d="M231.32 112.368H218.588C215.087 112.368 212.222 109.504 212.222 106.002V93.2706C212.222 89.7693 215.087 86.9047 218.588 86.9047H231.32C234.821 86.9047 237.685 89.7693 237.685 93.2706V106.002C237.685 109.504 234.821 112.368 231.32 112.368Z" stroke="#444E59" stroke-width="2" stroke-linecap="round" stroke-linejoin="round" stroke-dasharray="4.08 4.08"/>
</g>
<g opacity="0.3">
<path opacity="0.3" d="M301.742 112.368H289.01C285.509 112.368 282.644 109.504 282.644 106.002V93.2706C282.644 89.7693 285.509 86.9047 289.01 86.9047H301.742C305.243 86.9047 308.108 89.7693 308.108 93.2706V106.002C308.108 109.504 305.243 112.368 301.742 112.368Z" stroke="#444E59" stroke-width="2" stroke-linecap="round" stroke-linejoin="round" stroke-dasharray="4.08 4.08"/>
</g>
<g opacity="0.3">
<path opacity="0.3" d="M266.73 112.368H253.998C250.497 112.368 247.632 109.504 247.632 106.002V93.2706C247.632 89.7693 250.497 86.9047 253.998 86.9047H266.73C270.231 86.9047 273.096 89.7693 273.096 93.2706V106.002C273.096 109.504 270.231 112.368 266.73 112.368Z" stroke="#444E59" stroke-width="2" stroke-linecap="round" stroke-linejoin="round" stroke-dasharray="4.08 4.08"/>
</g>
</g>
<g opacity="0.3">
<g opacity="0.3">
<path opacity="0.3" d="M231.32 74.173H218.588C215.087 74.173 212.222 71.3083 212.222 67.8071V55.0754C212.222 51.5741 215.087 48.7095 218.588 48.7095H231.32C234.821 48.7095 237.685 51.5741 237.685 55.0754V67.8071C237.685 71.3083 234.821 74.173 231.32 74.173Z" stroke="#444E59" stroke-width="2" stroke-linecap="round" stroke-linejoin="round" stroke-dasharray="4.08 4.08"/>
</g>
<g opacity="0.3">
<path opacity="0.3" d="M301.742 74.173H289.01C285.509 74.173 282.644 71.3083 282.644 67.8071V55.0754C282.644 51.5741 285.509 48.7095 289.01 48.7095H301.742C305.243 48.7095 308.108 51.5741 308.108 55.0754V67.8071C308.108 71.3083 305.243 74.173 301.742 74.173Z" stroke="#444E59" stroke-width="2" stroke-linecap="round" stroke-linejoin="round" stroke-dasharray="4.08 4.08"/>
</g>
<g opacity="0.3">
<path opacity="0.3" d="M266.73 74.173H253.998C250.497 74.173 247.632 71.3083 247.632 67.8071V55.0754C247.632 51.5741 250.497 48.7095 253.998 48.7095H266.73C270.231 48.7095 273.096 51.5741 273.096 55.0754V67.8071C273.096 71.3083 270.231 74.173 266.73 74.173Z" stroke="#444E59" stroke-width="2" stroke-linecap="round" stroke-linejoin="round" stroke-dasharray="4.08 4.08"/>
</g>
</g>
</g>
<path d="M231.32 188.759H218.588C215.087 188.759 212.222 185.894 212.222 182.393V169.661C212.222 166.16 215.087 163.295 218.588 163.295H231.32C234.821 163.295 237.685 166.16 237.685 169.661V182.393C237.685 185.894 234.821 188.759 231.32 188.759Z" fill="#71A850"/>
<path opacity="0.52" d="M231.32 163.295H218.588C216.041 163.295 213.813 164.807 212.859 166.955L237.685 171.412V169.661C237.685 166.16 234.821 163.295 231.32 163.295Z" fill="#5F8C42"/>
<path d="M231.32 188.759H218.588C215.087 188.759 212.222 185.894 212.222 182.393V169.661C212.222 166.16 215.087 163.295 218.588 163.295H231.32C234.821 163.295 237.685 166.16 237.685 169.661V182.393C237.685 185.894 234.821 188.759 231.32 188.759Z" stroke="#444E59" stroke-width="4" stroke-miterlimit="10" stroke-linecap="round" stroke-linejoin="round"/>
<path d="M266.73 188.759H253.998C250.497 188.759 247.632 185.894 247.632 182.393V169.661C247.632 166.16 250.497 163.295 253.998 163.295H266.73C270.231 163.295 273.096 166.16 273.096 169.661V182.393C273.096 185.894 270.231 188.759 266.73 188.759Z" fill="#F09F54"/>
<path opacity="0.52" d="M266.73 163.295H253.998C251.452 163.295 249.224 164.807 248.269 166.955L273.096 171.412V169.661C273.096 166.16 270.231 163.295 266.73 163.295Z" fill="#D38444"/>
<path d="M266.73 188.759H253.998C250.497 188.759 247.632 185.894 247.632 182.393V169.661C247.632 166.16 250.497 163.295 253.998 163.295H266.73C270.231 163.295 273.096 166.16 273.096 169.661V182.393C273.096 185.894 270.231 188.759 266.73 188.759Z" stroke="#444E59" stroke-width="4" stroke-miterlimit="10" stroke-linecap="round" stroke-linejoin="round"/>
<path d="M301.742 150.563H289.01C285.509 150.563 282.644 147.699 282.644 144.198V131.466C282.644 127.965 285.509 125.1 289.01 125.1H301.742C305.243 125.1 308.108 127.965 308.108 131.466V144.198C308.108 147.699 305.243 150.563 301.742 150.563Z" fill="#2FA9ED"/>
<path opacity="0.52" d="M301.742 125.1H289.01C286.464 125.1 284.236 126.612 283.281 128.76L308.108 133.216V131.466C308.108 127.965 305.243 125.1 301.742 125.1Z" fill="#288FBC"/>
<path d="M301.742 150.563H289.01C285.509 150.563 282.644 147.699 282.644 144.197V131.466C282.644 127.965 285.509 125.1 289.01 125.1H301.742C305.243 125.1 308.108 127.965 308.108 131.466V144.197C308.108 147.699 305.243 150.563 301.742 150.563Z" stroke="#444E59" stroke-width="4" stroke-miterlimit="10" stroke-linecap="round" stroke-linejoin="round"/>
<path d="M266.73 112.368H253.998C250.497 112.368 247.632 109.504 247.632 106.002V93.2706C247.632 89.7693 250.497 86.9047 253.998 86.9047H266.73C270.231 86.9047 273.096 89.7693 273.096 93.2706V106.002C273.096 109.504 270.231 112.368 266.73 112.368Z" fill="#E7534E"/>
<path opacity="0.52" d="M266.73 86.9047H253.998C251.452 86.9047 249.224 88.4166 248.269 90.5651L273.096 95.0212V93.2706C273.096 89.7693 270.231 86.9047 266.73 86.9047Z" fill="#BF4040"/>
<path d="M266.73 112.368H253.998C250.497 112.368 247.632 109.504 247.632 106.002V93.2706C247.632 89.7693 250.497 86.9047 253.998 86.9047H266.73C270.231 86.9047 273.096 89.7693 273.096 93.2706V106.002C273.096 109.504 270.231 112.368 266.73 112.368Z" stroke="#444E59" stroke-width="4" stroke-miterlimit="10" stroke-linecap="round" stroke-linejoin="round"/>
<path d="M293.307 132.262L300.628 136.479C301.662 137.115 301.662 138.627 300.628 139.184L293.307 143.402C292.273 144.038 290.92 143.243 290.92 142.049V133.614C290.92 132.421 292.273 131.625 293.307 132.262Z" fill="white"/>
<path d="M263.706 171.093H257.022C255.589 171.093 254.475 172.287 254.475 173.64V178.573C254.475 180.005 255.669 181.119 257.022 181.119H257.26L256.703 183.348C256.624 183.507 256.863 183.666 257.022 183.507L260.443 181.119H263.865C265.297 181.119 266.411 179.926 266.411 178.573V173.64C266.332 172.207 265.138 171.093 263.706 171.093Z" fill="white"/>
<path d="M220.02 176.027L222.964 178.971C223.362 179.369 223.999 179.369 224.397 178.971L231.001 172.366" stroke="white" stroke-width="4" stroke-miterlimit="10" stroke-linecap="round" stroke-linejoin="round"/>
<path d="M260.364 105.604C263.66 105.604 266.332 102.932 266.332 99.6364C266.332 96.3404 263.66 93.6684 260.364 93.6684C257.068 93.6684 254.396 96.3404 254.396 99.6364C254.396 102.932 257.068 105.604 260.364 105.604Z" stroke="white" stroke-width="4" stroke-miterlimit="10" stroke-linecap="round" stroke-linejoin="round"/>
<path d="M212.302 68.6022L212.142 56.6662L204.185 56.7458C203.708 55.2339 203.151 53.8812 202.355 52.5284L207.925 46.7991L199.411 38.4439L193.841 44.1732C192.488 43.4571 191.056 42.9001 189.544 42.5022L189.464 34.5449L177.528 34.704L177.608 42.6613C176.096 43.1388 174.743 43.6958 173.39 44.4915L167.661 38.9214L159.306 47.4357L165.035 53.0059C164.319 54.3586 163.762 55.7909 163.364 57.3028L155.407 57.3824L155.566 69.3184L163.523 69.2388C164.001 70.7507 164.558 72.1035 165.353 73.4562L159.783 79.1855L168.298 87.5407L173.868 81.8114C175.22 82.5276 176.653 83.0846 178.165 83.4824L178.244 91.4398L190.18 91.2806L190.101 83.3233C191.613 82.8458 192.965 82.2888 194.318 81.4931L200.047 87.0632L208.402 78.5489L202.673 72.9788C203.389 71.626 203.946 70.1937 204.344 68.6818L212.302 68.6022ZM184.053 72.2626C178.881 72.3422 174.743 68.2044 174.663 63.0321C174.584 57.8598 178.722 53.722 183.894 53.6425C189.066 53.5629 193.204 57.7007 193.284 62.873C193.284 68.0452 189.146 72.183 184.053 72.2626Z" fill="white"/>
<path d="M212.302 68.6022L212.142 56.6662L204.185 56.7458C203.708 55.2339 203.151 53.8812 202.355 52.5284L207.925 46.7991L199.411 38.4439L193.841 44.1732C192.488 43.4571 191.056 42.9001 189.544 42.5022L189.464 34.5449L177.528 34.704L177.608 42.6613C176.096 43.1388 174.743 43.6958 173.39 44.4915L167.661 38.9214L159.306 47.4357L165.035 53.0059C164.319 54.3586 163.762 55.7909 163.364 57.3028L155.407 57.3824L155.566 69.3184L163.523 69.2388C164.001 70.7507 164.558 72.1035 165.353 73.4562L159.783 79.1855L168.298 87.5407L173.868 81.8114C175.22 82.5276 176.653 83.0846 178.165 83.4824L178.244 91.4398L190.18 91.2806L190.101 83.3233C191.613 82.8458 192.965 82.2888 194.318 81.4931L200.047 87.0632L208.402 78.5489L202.673 72.9788C203.389 71.626 203.946 70.1937 204.344 68.6818L212.302 68.6022ZM184.053 72.2626C178.881 72.3422 174.743 68.2044 174.663 63.0321C174.584 57.8598 178.722 53.722 183.894 53.6425C189.066 53.5629 193.204 57.7007 193.284 62.873C193.284 68.0452 189.146 72.183 184.053 72.2626Z" fill="#F09F54"/>
<path d="M212.302 68.6022L212.142 56.6662L204.185 56.7458C203.708 55.2339 203.151 53.8812 202.355 52.5284L207.925 46.7991L199.411 38.4439L193.841 44.1732C192.488 43.4571 191.056 42.9001 189.544 42.5022L189.464 34.5449L177.528 34.704L177.608 42.6613C176.096 43.1388 174.743 43.6958 173.39 44.4915L167.661 38.9214L159.306 47.4357L165.035 53.0059C164.319 54.3586 163.762 55.7909 163.364 57.3028L155.407 57.3824L155.566 69.3184L163.523 69.2388C164.001 70.7507 164.558 72.1035 165.353 73.4562L159.783 79.1855L168.298 87.5407L173.868 81.8114C175.22 82.5276 176.653 83.0846 178.165 83.4824L178.244 91.4398L190.18 91.2806L190.101 83.3233C191.613 82.8458 192.965 82.2888 194.318 81.4931L200.047 87.0632L208.402 78.5489L202.673 72.9788C203.389 71.626 203.946 70.1937 204.344 68.6818L212.302 68.6022ZM184.053 72.2626C178.881 72.3422 174.743 68.2044 174.663 63.0321C174.584 57.8598 178.722 53.722 183.894 53.6425C189.066 53.5629 193.204 57.7007 193.284 62.873C193.284 68.0452 189.146 72.183 184.053 72.2626Z" fill="#F09F54"/>
<g opacity="0.29">
<path opacity="0.29" d="M209.278 56.7464C209.278 56.7464 209.278 56.826 209.278 56.7464H212.222V56.6669L209.278 56.7464Z" fill="#F09F54"/>
<path opacity="0.29" d="M198.933 44.2534L202.037 41.0705L199.49 38.5242L195.352 42.7415C196.626 43.1394 197.819 43.6168 198.933 44.2534Z" fill="#F09F54"/>
<path opacity="0.29" d="M188.827 53.6431C187.952 53.6431 187.156 53.8022 186.44 53.9614C190.339 55.0754 193.204 58.5766 193.204 62.794C193.284 67.091 190.339 70.7514 186.44 71.8654C187.236 72.1041 188.191 72.2632 189.066 72.1837C194.238 72.1041 198.297 67.8867 198.297 62.794C198.297 57.7013 194 53.6431 188.827 53.6431Z" fill="#F09F54"/>
<path opacity="0.29" d="M176.971 42.9007L178.562 44.4126C179.915 43.6964 181.268 43.0598 182.78 42.5824L182.7 34.6251L189.544 34.5455V34.4659L177.608 34.6251L177.687 42.5824C177.528 42.7415 177.21 42.8211 176.971 42.9007Z" fill="#F09F54"/>
<path opacity="0.29" d="M183.178 83.4035C181.666 83.0056 180.234 82.4486 178.881 81.7325L177.448 83.2443C177.687 83.3239 177.926 83.4035 178.165 83.4831L178.244 91.4404L183.257 91.3608L183.178 83.4035Z" fill="#F09F54"/>
<path opacity="0.29" d="M160.579 57.3035L168.536 57.2239C168.934 55.712 169.491 54.2797 170.207 52.9269L164.478 47.3568L170.366 41.3888L167.82 38.8424L159.465 47.3568L165.194 52.9269C164.478 54.2797 163.921 55.712 163.523 57.2239L155.566 57.3035L155.725 69.2394L160.738 69.1599L160.579 57.3035Z" fill="#F09F54"/>
<path opacity="0.29" d="M199.331 81.4937C198.217 82.1303 197.103 82.6078 195.909 83.0056L200.047 87.0639L202.514 84.5175L199.331 81.4937Z" fill="#F09F54"/>
<path opacity="0.29" d="M164.876 79.027L170.446 73.2977C169.73 71.9449 169.093 70.5922 168.616 69.0803L163.603 69.1599C164.08 70.5922 164.637 72.0245 165.353 73.2977L159.783 79.027L168.298 87.3822L170.764 84.8358L164.876 79.027Z" fill="#F09F54"/>
</g>
<path d="M212.302 68.6022L212.142 56.6662L204.185 56.7458C203.708 55.2339 203.151 53.8812 202.355 52.5284L207.925 46.7991L199.411 38.4439L193.841 44.1732C192.488 43.4571 191.056 42.9001 189.544 42.5022L189.464 34.5449L177.528 34.704L177.608 42.6613C176.096 43.1388 174.743 43.6958 173.39 44.4915L167.661 38.9214L159.306 47.4357L165.035 53.0059C164.319 54.3586 163.762 55.7909 163.364 57.3028L155.407 57.3824L155.566 69.3184L163.523 69.2388C164.001 70.7507 164.558 72.1035 165.353 73.4562L159.783 79.1855L168.298 87.5407L173.868 81.8114C175.22 82.5276 176.653 83.0846 178.165 83.4824L178.244 91.4398L190.18 91.2806L190.101 83.3233C191.613 82.8458 192.965 82.2888 194.318 81.4931L200.047 87.0632L208.402 78.5489L202.673 72.9788C203.389 71.626 203.946 70.1937 204.344 68.6818L212.302 68.6022ZM184.053 72.2626C178.881 72.3422 174.743 68.2044 174.663 63.0321C174.584 57.8598 178.722 53.722 183.894 53.6425C189.066 53.5629 193.204 57.7007 193.284 62.873C193.284 68.0452 189.146 72.183 184.053 72.2626Z" stroke="#444E59" stroke-width="4" stroke-miterlimit="10" stroke-linecap="round" stroke-linejoin="round"/>
<path d="M162.568 240.72H64.1361C60.8736 240.72 58.2477 238.094 58.2477 234.831V167.512C58.2477 164.25 60.8736 161.624 64.1361 161.624H162.648C165.91 161.624 168.536 164.25 168.536 167.512V234.831C168.457 238.094 165.831 240.72 162.568 240.72Z" fill="#444E59"/>
<path d="M168.457 174.435H58.2477V167.512C58.2477 164.25 60.8736 161.624 64.1361 161.624H162.648C165.91 161.624 168.536 164.25 168.536 167.512V174.435H168.457Z" fill="#BCBCBC"/>
<path d="M162.568 240.72H64.1361C60.8736 240.72 58.2477 238.094 58.2477 234.831V167.512C58.2477 164.25 60.8736 161.624 64.1361 161.624H162.648C165.91 161.624 168.536 164.25 168.536 167.512V234.831C168.457 238.094 165.831 240.72 162.568 240.72Z" stroke="#444E59" stroke-width="4" stroke-miterlimit="10" stroke-linecap="round" stroke-linejoin="round"/>
<path d="M162.568 240.72H64.1361C60.8736 240.72 58.2477 238.094 58.2477 234.831V167.512C58.2477 164.25 60.8736 161.624 64.1361 161.624H162.648C165.91 161.624 168.536 164.25 168.536 167.512V234.831C168.457 238.094 165.831 240.72 162.568 240.72Z" stroke="#444E59" stroke-width="4" stroke-miterlimit="10" stroke-linecap="round" stroke-linejoin="round"/>
<path d="M168.457 174.435H58.2477V167.512C58.2477 164.25 60.8736 161.624 64.1361 161.624H162.648C165.91 161.624 168.536 164.25 168.536 167.512V174.435H168.457Z" stroke="#444E59" stroke-width="4" stroke-miterlimit="10" stroke-linecap="round" stroke-linejoin="round"/>
<path d="M73.4462 230.614H85.8596" stroke="white" stroke-width="4" stroke-miterlimit="10" stroke-linecap="round" stroke-linejoin="round"/>
<path d="M64.6931 230.614H65.5684" stroke="white" stroke-width="4" stroke-miterlimit="10" stroke-linecap="round" stroke-linejoin="round"/>
<path d="M73.4462 223.771H104.878" stroke="white" stroke-width="4" stroke-miterlimit="10" stroke-linecap="round" stroke-linejoin="round"/>
<path d="M64.6931 223.771H65.5684" stroke="white" stroke-width="4" stroke-miterlimit="10" stroke-linecap="round" stroke-linejoin="round"/>
<path d="M119.837 216.848H128.431" stroke="#64BDFF" stroke-width="4" stroke-miterlimit="10" stroke-linecap="round" stroke-linejoin="round"/>
<path d="M96.4428 216.848H112.358" stroke="white" stroke-width="4" stroke-miterlimit="10" stroke-linecap="round" stroke-linejoin="round"/>
<path d="M73.4462 216.848H89.2017" stroke="#FF5F5F" stroke-width="4" stroke-miterlimit="10" stroke-linecap="round" stroke-linejoin="round"/>
<path d="M64.6931 216.848H65.5684" stroke="white" stroke-width="4" stroke-miterlimit="10" stroke-linecap="round" stroke-linejoin="round"/>
<path d="M99.9441 210.005H138.298" stroke="white" stroke-width="4" stroke-miterlimit="10" stroke-linecap="round" stroke-linejoin="round"/>
<path d="M73.4462 210.005H93.4986" stroke="#64BDFF" stroke-width="4" stroke-miterlimit="10" stroke-linecap="round" stroke-linejoin="round"/>
<path d="M64.6931 210.005H65.5684" stroke="white" stroke-width="4" stroke-miterlimit="10" stroke-linecap="round" stroke-linejoin="round"/>
<path d="M99.9441 203.161H114.267" stroke="#FF5F5F" stroke-width="4" stroke-miterlimit="10" stroke-linecap="round" stroke-linejoin="round"/>
<path d="M73.4462 203.161H93.4986" stroke="#FFBE78" stroke-width="4" stroke-miterlimit="10" stroke-linecap="round" stroke-linejoin="round"/>
<path d="M64.6931 203.161H65.5684" stroke="white" stroke-width="4" stroke-miterlimit="10" stroke-linecap="round" stroke-linejoin="round"/>
<path d="M102.729 196.318H106.628" stroke="#64BDFF" stroke-width="4" stroke-miterlimit="10" stroke-linecap="round" stroke-linejoin="round"/>
<path d="M87.6102 196.318H96.4428" stroke="#FF5F5F" stroke-width="4" stroke-miterlimit="10" stroke-linecap="round" stroke-linejoin="round"/>
<path d="M73.4462 196.318H80.7669" stroke="#C383F2" stroke-width="4" stroke-miterlimit="10" stroke-linecap="round" stroke-linejoin="round"/>
<path d="M64.6931 196.318H65.5684" stroke="white" stroke-width="4" stroke-miterlimit="10" stroke-linecap="round" stroke-linejoin="round"/>
<path d="M131.376 189.395H138.298" stroke="#64BDFF" stroke-width="4" stroke-miterlimit="10" stroke-linecap="round" stroke-linejoin="round"/>
<path d="M95.488 189.395H122.622" stroke="#FF5F5F" stroke-width="4" stroke-miterlimit="10" stroke-linecap="round" stroke-linejoin="round"/>
<path d="M73.4462 189.395H89.5995" stroke="#FFBE78" stroke-width="4" stroke-miterlimit="10" stroke-linecap="round" stroke-linejoin="round"/>
<path d="M64.6931 189.395H65.5684" stroke="white" stroke-width="4" stroke-miterlimit="10" stroke-linecap="round" stroke-linejoin="round"/>
<path d="M114.267 182.552H128.431" stroke="#FFBE78" stroke-width="4" stroke-miterlimit="10" stroke-linecap="round" stroke-linejoin="round"/>
<path d="M96.4428 182.552H107.424" stroke="#6DBF7B" stroke-width="4" stroke-miterlimit="10" stroke-linecap="round" stroke-linejoin="round"/>
<path d="M84.5068 182.552H90.7136" stroke="#FFBE78" stroke-width="4" stroke-miterlimit="10" stroke-linecap="round" stroke-linejoin="round"/>
<path d="M73.4462 182.552H78.5388" stroke="#6DBF7B" stroke-width="4" stroke-miterlimit="10" stroke-linecap="round" stroke-linejoin="round"/>
<path d="M64.6931 182.552H65.5684" stroke="white" stroke-width="4" stroke-miterlimit="10" stroke-linecap="round" stroke-linejoin="round"/>
<path d="M69.1492 170.059C70.2479 170.059 71.1385 169.168 71.1385 168.07C71.1385 166.971 70.2479 166.08 69.1492 166.08C68.0505 166.08 67.1599 166.971 67.1599 168.07C67.1599 169.168 68.0505 170.059 69.1492 170.059Z" fill="#E7534E"/>
<path d="M76.3108 170.059C77.4095 170.059 78.3001 169.168 78.3001 168.07C78.3001 166.971 77.4095 166.08 76.3108 166.08C75.2121 166.08 74.3215 166.971 74.3215 168.07C74.3215 169.168 75.2121 170.059 76.3108 170.059Z" fill="#444E59"/>
<path d="M83.552 170.059C84.6507 170.059 85.5413 169.168 85.5413 168.07C85.5413 166.971 84.6507 166.08 83.552 166.08C82.4533 166.08 81.5626 166.971 81.5626 168.07C81.5626 169.168 82.4533 170.059 83.552 170.059Z" fill="#444E59"/>
<path d="M201.798 181.438H130.5C126.999 181.438 124.134 178.573 124.134 175.072V110.697C124.134 107.196 126.999 104.331 130.5 104.331H201.798C205.299 104.331 208.164 107.196 208.164 110.697V175.072C208.164 178.573 205.299 181.438 201.798 181.438Z" fill="white"/>
<path d="M201.798 181.438H130.5C126.999 181.438 124.134 178.573 124.134 175.072V110.697C124.134 107.196 126.999 104.331 130.5 104.331H201.798C205.299 104.331 208.164 107.196 208.164 110.697V175.072C208.164 178.573 205.299 181.438 201.798 181.438Z" fill="white"/>
<path d="M201.798 181.438H130.5C126.999 181.438 124.134 178.573 124.134 175.072V110.697C124.134 107.196 126.999 104.331 130.5 104.331H201.798C205.299 104.331 208.164 107.196 208.164 110.697V175.072C208.164 178.573 205.299 181.438 201.798 181.438Z" stroke="#444E59" stroke-width="4" stroke-miterlimit="10" stroke-linecap="round" stroke-linejoin="round"/>
<path d="M200.445 110.856H131.376V156.77H200.445V110.856Z" fill="#9483C4"/>
<path d="M200.445 110.856H131.376V156.77H200.445V110.856Z" stroke="#444E59" stroke-width="4" stroke-miterlimit="10" stroke-linecap="round" stroke-linejoin="round"/>
<path d="M131.376 164.091H174.982" stroke="#444E59" stroke-width="4" stroke-miterlimit="10" stroke-linecap="round" stroke-linejoin="round"/>
<path d="M131.376 171.412H157.157" stroke="#444E59" stroke-width="4" stroke-miterlimit="10" stroke-linecap="round" stroke-linejoin="round"/>
<path d="M138.298 148.574L153.179 133.853L167.024 147.699" stroke="#444E59" stroke-width="4" stroke-miterlimit="10" stroke-linecap="round" stroke-linejoin="round"/>
<path d="M192.965 148.574L174.982 125.1L160.579 141.174" stroke="#444E59" stroke-width="4" stroke-miterlimit="10" stroke-linecap="round" stroke-linejoin="round"/>
<path d="M192.806 171.332C194.96 171.332 196.705 169.586 196.705 167.433C196.705 165.279 194.96 163.534 192.806 163.534C190.653 163.534 188.907 165.279 188.907 167.433C188.907 169.586 190.653 171.332 192.806 171.332Z" stroke="#444E59" stroke-width="4" stroke-miterlimit="10" stroke-linecap="round" stroke-linejoin="round"/>
<path d="M157.555 130.033C160.28 130.033 162.489 127.825 162.489 125.1C162.489 122.375 160.28 120.166 157.555 120.166C154.83 120.166 152.622 122.375 152.622 125.1C152.622 127.825 154.83 130.033 157.555 130.033Z" fill="#F09F54"/>
<path d="M157.555 130.033C160.28 130.033 162.489 127.825 162.489 125.1C162.489 122.375 160.28 120.166 157.555 120.166C154.83 120.166 152.622 122.375 152.622 125.1C152.622 127.825 154.83 130.033 157.555 130.033Z" stroke="#444E59" stroke-width="4" stroke-miterlimit="10" stroke-linecap="round" stroke-linejoin="round"/>
<path d="M122.782 81.6529H144.107" stroke="#444E59" stroke-width="4" stroke-miterlimit="10" stroke-linecap="round" stroke-linejoin="round"/>
<path d="M111.403 81.6529H117.052" stroke="#444E59" stroke-width="4" stroke-miterlimit="10" stroke-linecap="round" stroke-linejoin="round"/>
<path d="M133.444 71.7858H144.107" stroke="#444E59" stroke-width="4" stroke-miterlimit="10" stroke-linecap="round" stroke-linejoin="round"/>
<path d="M124.851 71.7858H128.033" stroke="#444E59" stroke-width="4" stroke-miterlimit="10" stroke-linecap="round" stroke-linejoin="round"/>
<path d="M99.7054 144.038H116.336" stroke="#444E59" stroke-width="4" stroke-miterlimit="10" stroke-linecap="round" stroke-linejoin="round"/>
<path d="M90.8727 144.038H95.2492" stroke="#444E59" stroke-width="4" stroke-miterlimit="10" stroke-linecap="round" stroke-linejoin="round"/>
<path d="M109.572 134.171H116.336" stroke="#444E59" stroke-width="4" stroke-miterlimit="10" stroke-linecap="round" stroke-linejoin="round"/>
<path d="M101.297 134.171H103.843" stroke="#444E59" stroke-width="4" stroke-miterlimit="10" stroke-linecap="round" stroke-linejoin="round"/>
<path d="M364.923 28.5775H380.679" stroke="#444E59" stroke-width="4" stroke-miterlimit="10" stroke-linecap="round" stroke-linejoin="round"/>
<path d="M355.215 28.5775H359.671" stroke="#444E59" stroke-width="4" stroke-miterlimit="10" stroke-linecap="round" stroke-linejoin="round"/>
<path d="M373.915 18.7104H380.679" stroke="#444E59" stroke-width="4" stroke-miterlimit="10" stroke-linecap="round" stroke-linejoin="round"/>
<path d="M365.719 18.7104H368.186" stroke="#444E59" stroke-width="4" stroke-miterlimit="10" stroke-linecap="round" stroke-linejoin="round"/>
<path d="M377.177 84.1992H314.951C311.132 84.1992 308.108 81.0958 308.108 77.3559V47.1976C308.108 43.3781 311.211 40.3543 314.951 40.3543H377.177C380.997 40.3543 384.021 43.4577 384.021 47.1976V77.2763C384.021 81.0958 380.997 84.1992 377.177 84.1992Z" fill="#2FA9ED"/>
<path d="M377.177 84.1992H314.951C311.132 84.1992 308.108 81.0958 308.108 77.3559V47.1976C308.108 43.3781 311.211 40.3543 314.951 40.3543H377.177C380.997 40.3543 384.021 43.4577 384.021 47.1976V77.2763C384.021 81.0958 380.997 84.1992 377.177 84.1992Z" stroke="#444E59" stroke-width="3" stroke-miterlimit="10" stroke-linecap="round" stroke-linejoin="round"/>
<path opacity="0.56" d="M346.064 52.1312H372.96" stroke="white" stroke-width="3" stroke-miterlimit="10" stroke-linecap="round" stroke-linejoin="round"/>
<path opacity="0.56" d="M346.064 60.8047H363.889" stroke="white" stroke-width="3" stroke-miterlimit="10" stroke-linecap="round" stroke-linejoin="round"/>
<g opacity="0.56">
<path opacity="0.56" d="M359.592 73.7751H348.77C347.337 73.7751 346.144 72.5815 346.144 71.1492C346.144 69.7169 347.337 68.5233 348.77 68.5233H359.592C361.024 68.5233 362.218 69.7169 362.218 71.1492C362.218 72.5815 361.104 73.7751 359.592 73.7751Z" fill="white"/>
<path opacity="0.56" d="M359.592 73.7751H348.77C347.337 73.7751 346.144 72.5815 346.144 71.1492C346.144 69.7169 347.337 68.5233 348.77 68.5233H359.592C361.024 68.5233 362.218 69.7169 362.218 71.1492C362.218 72.5815 361.104 73.7751 359.592 73.7751Z" stroke="white" stroke-width="3" stroke-miterlimit="10" stroke-linecap="round" stroke-linejoin="round"/>
</g>
<path d="M334.844 74.173H320.601C318.532 74.173 316.94 72.5019 316.94 70.5126V53.8818C316.94 51.8129 318.611 50.2214 320.601 50.2214H334.844C336.913 50.2214 338.505 51.8924 338.505 53.8818V70.5126C338.505 72.5019 336.913 74.173 334.844 74.173Z" stroke="white" stroke-width="3" stroke-miterlimit="10" stroke-linecap="round" stroke-linejoin="round"/>
<path d="M327.762 63.2714C329.872 63.2714 331.582 61.5614 331.582 59.4519C331.582 57.3424 329.872 55.6324 327.762 55.6324C325.653 55.6324 323.943 57.3424 323.943 59.4519C323.943 61.5614 325.653 63.2714 327.762 63.2714Z" stroke="white" stroke-width="3" stroke-miterlimit="10" stroke-linecap="round" stroke-linejoin="round"/>
<path d="M320.521 73.7751C320.521 69.7964 323.784 66.5339 327.762 66.5339C331.741 66.5339 335.004 69.7964 335.004 73.7751" stroke="white" stroke-width="3" stroke-miterlimit="10" stroke-linecap="round" stroke-linejoin="round"/>
</svg>
